<svg width="320" height="88" viewBox="0 0 320 88" fill="none" xmlns="http://www.w3.org/2000/svg" role="img" aria-labelledby="title desc">
  <title id="title">VivoCloud logo</title>
  <desc id="desc">Gradient cloud and check mark icon with VivoCloud wordmark.</desc>
  <defs>
    <linearGradient id="cloudGradient" x1="8" y1="8" x2="72" y2="72" gradientUnits="userSpaceOnUse">
      <stop offset="0" stop-color="#8CC8FF"/>
      <stop offset="1" stop-color="#5E8CFF"/>
    </linearGradient>
    <linearGradient id="tickGradient" x1="17" y1="45" x2="52" y2="25" gradientUnits="userSpaceOnUse">
      <stop offset="0" stop-color="#D8E8FF"/>
      <stop offset="1" stop-color="#F4FAFF"/>
    </linearGradient>
  </defs>
  <rect x="1.5" y="1.5" width="77" height="77" rx="19" fill="#0D1424" stroke="#284065" stroke-width="3"/>
  <path d="M56.2 56.8H24.5C17.9 56.8 12.5 51.7 12.5 45.2C12.5 39.8 16.1 35.2 21.2 33.9C22.3 25.4 29.5 18.8 38.3 18.8C46.1 18.8 52.8 24 54.9 31.3C55.5 31.2 56.1 31.1 56.7 31.1C63.5 31.1 69 36.4 69 43C69 50 63.3 56.8 56.2 56.8Z" fill="url(#cloudGradient)"/>
  <path d="M29.3 43.4L36.7 50.4L53.5 32.8" stroke="url(#tickGradient)" stroke-width="6" stroke-linecap="round" stroke-linejoin="round"/>
  <text x="94" y="42" fill="#F6F8FF" font-size="33" font-family="Inter, system-ui, -apple-system, Segoe UI, sans-serif" font-weight="700" letter-spacing="0.2">Vivo</text>
  <text x="170" y="42" fill="#89C2FF" font-size="33" font-family="Inter, system-ui, -apple-system, Segoe UI, sans-serif" font-weight="700" letter-spacing="0.2">Cloud</text>
  <text x="95" y="63" fill="#A8B5D5" font-size="11" font-family="Inter, system-ui, -apple-system, Segoe UI, sans-serif" font-weight="600" letter-spacing="1.3">SOFTWARE STUDIO</text>
</svg>
