<svg width="320" height="88" viewBox="0 0 320 88" fill="none" xmlns="http://www.w3.org/2000/svg" role="img" aria-labelledby="title desc">
  <title id="title">VivoCloud Pulse logo</title>
  <desc id="desc">Cloud and pulse line icon with VivoCloud wordmark.</desc>
  <defs>
    <linearGradient id="pulA" x1="10" y1="12" x2="70" y2="68" gradientUnits="userSpaceOnUse">
      <stop offset="0" stop-color="#9BD7FF"/>
      <stop offset="1" stop-color="#6A96FF"/>
    </linearGradient>
  </defs>
  <rect x="1.5" y="1.5" width="77" height="77" rx="19" fill="#0D1424" stroke="#284065" stroke-width="3"/>
  <path d="M55.9 57.4H24.7C17.9 57.4 12.4 51.9 12.4 45.1C12.4 39.3 16.3 34.4 21.7 33C22.8 24.8 29.8 18.5 38.4 18.5C45.7 18.5 52.1 23.3 54.5 30.2C55 30.1 55.5 30 56.1 30C63.4 30 69.3 35.8 69.3 43.1C69.3 50.9 63.6 57.4 55.9 57.4Z" fill="url(#pulA)"/>
  <path d="M20 43.7H29.5L33.8 36L39.5 49.5L45.1 40.5L49 43.7H60.8" stroke="#F3F9FF" stroke-width="4.5" stroke-linecap="round" stroke-linejoin="round"/>
  <text x="94" y="42" fill="#F6F8FF" font-size="33" font-family="Inter, system-ui, -apple-system, Segoe UI, sans-serif" font-weight="700">Vivo</text>
  <text x="170" y="42" fill="#89C2FF" font-size="33" font-family="Inter, system-ui, -apple-system, Segoe UI, sans-serif" font-weight="700">Cloud</text>
  <text x="95" y="63" fill="#A8B5D5" font-size="11" font-family="Inter, system-ui, -apple-system, Segoe UI, sans-serif" font-weight="600" letter-spacing="1.2">SOFTWARE STUDIO</text>
</svg>
